<svg xmlns="http://www.w3.org/2000/svg" width="601" height="260"><g data-name="组 7020"><g data-name="组 6245" transform="translate(-863.6 -4184.599)"><circle data-name="椭圆 1525" fill="#ff7800" cx="3" cy="3" r="3" transform="translate(1310.599 4395.6)"/><g data-name="椭圆 1524" opacity=".5" stroke="#ff7800" fill="none" transform="translate(1306.599 4391.6)"><circle stroke="none" cx="7" cy="7" r="7"/><circle class="cls-8" cx="7" cy="7" r="6.5"/></g></g><g data-name="组 6312" transform="translate(-851.6 -4291.599)"><circle data-name="椭圆 1525" fill="#ff7800" cx="3" cy="3" r="3" transform="translate(1310.599 4395.6)"/><g data-name="椭圆 1524" opacity=".5" stroke="#ff7800" fill="none" transform="translate(1306.599 4391.6)"><circle stroke="none" cx="7" cy="7" r="7"/><circle class="cls-8" cx="7" cy="7" r="6.5"/></g></g><g data-name="组 6310" transform="translate(-982.6 -4259.599)"><circle data-name="椭圆 1525" fill="#ff7800" cx="3" cy="3" r="3" transform="translate(1310.599 4395.6)"/><g data-name="椭圆 1524" opacity=".5" stroke="#ff7800" fill="none" transform="translate(1306.599 4391.6)"><circle stroke="none" cx="7" cy="7" r="7"/><circle class="cls-8" cx="7" cy="7" r="6.5"/></g></g><g data-name="组 6301" transform="translate(-1074.6 -4266.599)"><circle data-name="椭圆 1525" fill="#ff7800" cx="3" cy="3" r="3" transform="translate(1310.599 4395.6)"/><g data-name="椭圆 1524" opacity=".5" stroke="#ff7800" fill="none" transform="translate(1306.599 4391.6)"><circle stroke="none" cx="7" cy="7" r="7"/><circle class="cls-8" cx="7" cy="7" r="6.5"/></g></g><g data-name="组 6299" transform="translate(-900.6 -4207.599)"><circle data-name="椭圆 1525" fill="#ff7800" cx="3" cy="3" r="3" transform="translate(1310.599 4395.6)"/><g data-name="椭圆 1524" opacity=".5" stroke="#ff7800" fill="none" transform="translate(1306.599 4391.6)"><circle stroke="none" cx="7" cy="7" r="7"/><circle class="cls-8" cx="7" cy="7" r="6.5"/></g></g><g data-name="组 6449" transform="translate(-810.6 -4228.599)"><circle data-name="椭圆 1525" fill="#ff7800" cx="3" cy="3" r="3" transform="translate(1310.599 4395.6)"/><g data-name="椭圆 1524" opacity=".5" stroke="#ff7800" fill="none" transform="translate(1306.599 4391.6)"><circle stroke="none" cx="7" cy="7" r="7"/><circle class="cls-8" cx="7" cy="7" r="6.5"/></g></g><g data-name="组 6447" transform="translate(-956.6 -4319.599)"><circle data-name="椭圆 1525" fill="#ff7800" cx="3" cy="3" r="3" transform="translate(1310.599 4395.6)"/><g data-name="椭圆 1524" opacity=".5" stroke="#ff7800" fill="none" transform="translate(1306.599 4391.6)"><circle stroke="none" cx="7" cy="7" r="7"/><circle class="cls-8" cx="7" cy="7" r="6.5"/></g></g><g data-name="组 6321" transform="translate(-886.6 -4184.599)"><circle data-name="椭圆 1525" fill="#ff7800" cx="3" cy="3" r="3" transform="translate(1310.599 4395.6)"/><g data-name="椭圆 1524" opacity=".5" stroke="#ff7800" fill="none" transform="translate(1306.599 4391.6)"><circle stroke="none" cx="7" cy="7" r="7"/><circle class="cls-8" cx="7" cy="7" r="6.5"/></g></g><g data-name="组 6313" transform="translate(-851.6 -4201.599)"><circle data-name="椭圆 1525" fill="#ff7800" cx="3" cy="3" r="3" transform="translate(1310.599 4395.6)"/><g data-name="椭圆 1524" opacity=".5" stroke="#ff7800" fill="none" transform="translate(1306.599 4391.6)"><circle stroke="none" cx="7" cy="7" r="7"/><circle class="cls-8" cx="7" cy="7" r="6.5"/></g></g><g data-name="组 6300" transform="translate(-942.6 -4184.599)"><circle data-name="椭圆 1525" fill="#ff7800" cx="3" cy="3" r="3" transform="translate(1310.599 4395.6)"/><g data-name="椭圆 1524" opacity=".5" stroke="#ff7800" fill="none" transform="translate(1306.599 4391.6)"><circle stroke="none" cx="7" cy="7" r="7"/><circle class="cls-8" cx="7" cy="7" r="6.5"/></g></g><g data-name="组 6297" transform="translate(-921.6 -4221.599)"><circle data-name="椭圆 1525" fill="#ff7800" cx="3" cy="3" r="3" transform="translate(1310.599 4395.6)"/><g data-name="椭圆 1524" opacity=".5" stroke="#ff7800" fill="none" transform="translate(1306.599 4391.6)"><circle stroke="none" cx="7" cy="7" r="7"/><circle class="cls-8" cx="7" cy="7" r="6.5"/></g></g><g data-name="组 6438" transform="translate(-837.6 -4209.599)"><circle data-name="椭圆 1525" fill="#ff7800" cx="3" cy="3" r="3" transform="translate(1310.599 4395.6)"/><g data-name="椭圆 1524" opacity=".5" stroke="#ff7800" fill="none" transform="translate(1306.599 4391.6)"><circle stroke="none" cx="7" cy="7" r="7"/><circle class="cls-8" cx="7" cy="7" r="6.5"/></g></g><g data-name="组 6446" transform="translate(-1045.6 -4336.599)"><circle data-name="椭圆 1525" fill="#ff7800" cx="3" cy="3" r="3" transform="translate(1310.599 4395.6)"/><g data-name="椭圆 1524" opacity=".5" stroke="#ff7800" fill="none" transform="translate(1306.599 4391.6)"><circle stroke="none" cx="7" cy="7" r="7"/><circle class="cls-8" cx="7" cy="7" r="6.5"/></g></g><g data-name="组 6317" transform="translate(-837.6 -4336.599)"><circle data-name="椭圆 1525" fill="#ff7800" cx="3" cy="3" r="3" transform="translate(1310.599 4395.6)"/><g data-name="椭圆 1524" opacity=".5" stroke="#ff7800" fill="none" transform="translate(1306.599 4391.6)"><circle stroke="none" cx="7" cy="7" r="7"/><circle class="cls-8" cx="7" cy="7" r="6.5"/></g></g><g data-name="组 6311" transform="translate(-946.6 -4210.599)"><circle data-name="椭圆 1525" fill="#ff7800" cx="3" cy="3" r="3" transform="translate(1310.599 4395.6)"/><g data-name="椭圆 1524" opacity=".5" stroke="#ff7800" fill="none" transform="translate(1306.599 4391.6)"><circle stroke="none" cx="7" cy="7" r="7"/><circle class="cls-8" cx="7" cy="7" r="6.5"/></g></g><g data-name="组 6289" transform="translate(-830.6 -4196.599)"><circle data-name="椭圆 1525" fill="#ff7800" cx="3" cy="3" r="3" transform="translate(1310.599 4395.6)"/><g data-name="椭圆 1524" opacity=".5" stroke="#ff7800" fill="none" transform="translate(1306.599 4391.6)"><circle stroke="none" cx="7" cy="7" r="7"/><circle class="cls-8" cx="7" cy="7" r="6.5"/></g></g><g data-name="组 6295" transform="translate(-856.6 -4237.599)"><circle data-name="椭圆 1525" fill="#ff7800" cx="3" cy="3" r="3" transform="translate(1310.599 4395.6)"/><g data-name="椭圆 1524" opacity=".5" stroke="#ff7800" fill="none" transform="translate(1306.599 4391.6)"><circle stroke="none" cx="7" cy="7" r="7"/><circle class="cls-8" cx="7" cy="7" r="6.5"/></g></g><g data-name="组 6306" transform="translate(-877.6 -4177.599)"><circle data-name="椭圆 1525" fill="#ff7800" cx="3" cy="3" r="3" transform="translate(1310.599 4395.6)"/><g data-name="椭圆 1524" opacity=".5" stroke="#ff7800" fill="none" transform="translate(1306.599 4391.6)"><circle stroke="none" cx="7" cy="7" r="7"/><circle class="cls-8" cx="7" cy="7" r="6.5"/></g></g><g data-name="组 6309" transform="translate(-893.6 -4261.599)"><circle data-name="椭圆 1525" fill="#ff7800" cx="3" cy="3" r="3" transform="translate(1310.599 4395.6)"/><g data-name="椭圆 1524" opacity=".5" stroke="#ff7800" fill="none" transform="translate(1306.599 4391.6)"><circle stroke="none" cx="7" cy="7" r="7"/><circle class="cls-8" cx="7" cy="7" r="6.5"/></g></g><g data-name="组 6304" transform="translate(-733.6 -4357.599)"><circle data-name="椭圆 1525" fill="#ff7800" cx="3" cy="3" r="3" transform="translate(1310.599 4395.6)"/><g data-name="椭圆 1524" opacity=".5" stroke="#ff7800" fill="none" transform="translate(1306.599 4391.6)"><circle stroke="none" cx="7" cy="7" r="7"/><circle class="cls-8" cx="7" cy="7" r="6.5"/></g></g><g data-name="组 6292" transform="translate(-804.6 -4176.599)"><circle data-name="椭圆 1525" fill="#ff7800" cx="3" cy="3" r="3" transform="translate(1310.599 4395.6)"/><g data-name="椭圆 1524" opacity=".5" stroke="#ff7800" fill="none" transform="translate(1306.599 4391.6)"><circle stroke="none" cx="7" cy="7" r="7"/><circle class="cls-8" cx="7" cy="7" r="6.5"/></g></g><g data-name="组 6290" transform="translate(-744.6 -4241.599)"><circle data-name="椭圆 1525" fill="#ff7800" cx="3" cy="3" r="3" transform="translate(1310.599 4395.6)"/><g data-name="椭圆 1524" opacity=".5" stroke="#ff7800" fill="none" transform="translate(1306.599 4391.6)"><circle stroke="none" cx="7" cy="7" r="7"/><circle class="cls-8" cx="7" cy="7" r="6.5"/></g></g><g data-name="组 6109" transform="translate(-1240.6 -4259.599)"><circle data-name="椭圆 1525" fill="#ff7800" cx="3" cy="3" r="3" transform="translate(1309.599 4394.6)"/><g data-name="椭圆 1524" stroke="#ff7800" fill="none" transform="translate(1306.599 4391.6)"><circle stroke="none" cx="6" cy="6" r="6"/><circle class="cls-8" cx="6" cy="6" r="5.5"/></g></g><g data-name="组 6236" transform="translate(-1284.6 -4143.599)"><circle data-name="椭圆 1525" fill="#ff7800" cx="3" cy="3" r="3" transform="translate(1309.599 4394.6)"/><g data-name="椭圆 1524" stroke="#ff7800" fill="none" transform="translate(1306.599 4391.6)"><circle stroke="none" cx="6" cy="6" r="6"/><circle class="cls-8" cx="6" cy="6" r="5.5"/></g></g><g data-name="组 6110" transform="translate(-1307 -4183.19)"><circle data-name="椭圆 1525" fill="#5ca1e6" cx="3" cy="3" r="3" transform="translate(1310 4395.19)"/><g data-name="椭圆 1524" stroke="#5ca1e6" fill="none" transform="translate(1307 4392.19)"><circle stroke="none" cx="6" cy="6" r="6"/><circle class="cls-8" cx="6" cy="6" r="5.5"/></g></g><g data-name="组 6085" transform="translate(-862 -4303.19)"><circle data-name="椭圆 1525" fill="#5ca1e6" cx="3" cy="3" r="3" transform="translate(1311 4396.19)"/><g data-name="椭圆 1524" stroke="#5ca1e6" opacity=".5" fill="none" transform="translate(1307 4392.19)"><circle stroke="none" cx="7" cy="7" r="7"/><circle class="cls-8" cx="7" cy="7" r="6.5"/></g></g><g data-name="组 6445" transform="translate(-1075 -4347.19)"><circle data-name="椭圆 1525" fill="#5ca1e6" cx="3" cy="3" r="3" transform="translate(1311 4396.19)"/><g data-name="椭圆 1524" stroke="#5ca1e6" opacity=".5" fill="none" transform="translate(1307 4392.19)"><circle stroke="none" cx="7" cy="7" r="7"/><circle class="cls-8" cx="7" cy="7" r="6.5"/></g></g><g data-name="组 6318" transform="translate(-798 -4392.19)"><circle data-name="椭圆 1525" fill="#5ca1e6" cx="3" cy="3" r="3" transform="translate(1311 4396.19)"/><g data-name="椭圆 1524" stroke="#5ca1e6" opacity=".5" fill="none" transform="translate(1307 4392.19)"><circle stroke="none" cx="7" cy="7" r="7"/><circle class="cls-8" cx="7" cy="7" r="6.5"/></g></g><g data-name="组 6303" transform="translate(-759 -4309.19)"><circle data-name="椭圆 1525" fill="#5ca1e6" cx="3" cy="3" r="3" transform="translate(1311 4396.19)"/><g data-name="椭圆 1524" stroke="#5ca1e6" opacity=".5" fill="none" transform="translate(1307 4392.19)"><circle stroke="none" cx="7" cy="7" r="7"/><circle class="cls-8" cx="7" cy="7" r="6.5"/></g></g><g data-name="组 6288" transform="translate(-838 -4274.19)"><circle data-name="椭圆 1525" fill="#5ca1e6" cx="3" cy="3" r="3" transform="translate(1311 4396.19)"/><g data-name="椭圆 1524" stroke="#5ca1e6" opacity=".5" fill="none" transform="translate(1307 4392.19)"><circle stroke="none" cx="7" cy="7" r="7"/><circle class="cls-8" cx="7" cy="7" r="6.5"/></g></g><g data-name="组 6305" transform="translate(-720 -4323.19)"><circle data-name="椭圆 1525" fill="#5ca1e6" cx="3" cy="3" r="3" transform="translate(1311 4396.19)"/><g data-name="椭圆 1524" stroke="#5ca1e6" opacity=".5" fill="none" transform="translate(1307 4392.19)"><circle stroke="none" cx="7" cy="7" r="7"/><circle class="cls-8" cx="7" cy="7" r="6.5"/></g></g><g data-name="组 6302" transform="translate(-1039 -4285.19)"><circle data-name="椭圆 1525" fill="#5ca1e6" cx="3" cy="3" r="3" transform="translate(1311 4396.19)"/><g data-name="椭圆 1524" stroke="#5ca1e6" opacity=".5" fill="none" transform="translate(1307 4392.19)"><circle stroke="none" cx="7" cy="7" r="7"/><circle class="cls-8" cx="7" cy="7" r="6.5"/></g></g><g data-name="组 6293" transform="translate(-795 -4181.19)"><circle data-name="椭圆 1525" fill="#5ca1e6" cx="3" cy="3" r="3" transform="translate(1311 4396.19)"/><g data-name="椭圆 1524" stroke="#5ca1e6" opacity=".5" fill="none" transform="translate(1307 4392.19)"><circle stroke="none" cx="7" cy="7" r="7"/><circle class="cls-8" cx="7" cy="7" r="6.5"/></g></g><g data-name="组 6291" transform="translate(-908 -4146.19)"><circle data-name="椭圆 1525" fill="#5ca1e6" cx="3" cy="3" r="3" transform="translate(1311 4396.19)"/><g data-name="椭圆 1524" stroke="#5ca1e6" opacity=".5" fill="none" transform="translate(1307 4392.19)"><circle stroke="none" cx="7" cy="7" r="7"/><circle class="cls-8" cx="7" cy="7" r="6.5"/></g></g><g data-name="组 6298" transform="translate(-901 -4181.19)"><circle data-name="椭圆 1525" fill="#5ca1e6" cx="3" cy="3" r="3" transform="translate(1311 4396.19)"/><g data-name="椭圆 1524" stroke="#5ca1e6" opacity=".5" fill="none" transform="translate(1307 4392.19)"><circle stroke="none" cx="7" cy="7" r="7"/><circle class="cls-8" cx="7" cy="7" r="6.5"/></g></g><g data-name="组 6322" transform="translate(-936 -4181.19)"><circle data-name="椭圆 1525" fill="#5ca1e6" cx="3" cy="3" r="3" transform="translate(1311 4396.19)"/><g data-name="椭圆 1524" stroke="#5ca1e6" opacity=".5" fill="none" transform="translate(1307 4392.19)"><circle stroke="none" cx="7" cy="7" r="7"/><circle class="cls-8" cx="7" cy="7" r="6.5"/></g></g><g data-name="组 6320" transform="translate(-882 -4260.19)"><circle data-name="椭圆 1525" fill="#5ca1e6" cx="3" cy="3" r="3" transform="translate(1311 4396.19)"/><g data-name="椭圆 1524" stroke="#5ca1e6" opacity=".5" fill="none" transform="translate(1307 4392.19)"><circle stroke="none" cx="7" cy="7" r="7"/><circle class="cls-8" cx="7" cy="7" r="6.5"/></g></g><g data-name="组 6316" transform="translate(-882 -4215.19)"><circle data-name="椭圆 1525" fill="#5ca1e6" cx="3" cy="3" r="3" transform="translate(1311 4396.19)"/><g data-name="椭圆 1524" stroke="#5ca1e6" opacity=".5" fill="none" transform="translate(1307 4392.19)"><circle stroke="none" cx="7" cy="7" r="7"/><circle class="cls-8" cx="7" cy="7" r="6.5"/></g></g><g data-name="组 6448" transform="translate(-871 -4205.19)"><circle data-name="椭圆 1525" fill="#5ca1e6" cx="3" cy="3" r="3" transform="translate(1311 4396.19)"/><g data-name="椭圆 1524" stroke="#5ca1e6" opacity=".5" fill="none" transform="translate(1307 4392.19)"><circle stroke="none" cx="7" cy="7" r="7"/><circle class="cls-8" cx="7" cy="7" r="6.5"/></g></g><g data-name="组 6439" transform="translate(-843 -4218.19)"><circle data-name="椭圆 1525" fill="#5ca1e6" cx="3" cy="3" r="3" transform="translate(1311 4396.19)"/><g data-name="椭圆 1524" stroke="#5ca1e6" opacity=".5" fill="none" transform="translate(1307 4392.19)"><circle stroke="none" cx="7" cy="7" r="7"/><circle class="cls-8" cx="7" cy="7" r="6.5"/></g></g><g data-name="组 6315" transform="translate(-829 -4242.19)"><circle data-name="椭圆 1525" fill="#5ca1e6" cx="3" cy="3" r="3" transform="translate(1311 4396.19)"/><g data-name="椭圆 1524" stroke="#5ca1e6" opacity=".5" fill="none" transform="translate(1307 4392.19)"><circle stroke="none" cx="7" cy="7" r="7"/><circle class="cls-8" cx="7" cy="7" r="6.5"/></g></g><g data-name="组 6314" transform="translate(-843 -4181.19)"><circle data-name="椭圆 1525" fill="#5ca1e6" cx="3" cy="3" r="3" transform="translate(1311 4396.19)"/><g data-name="椭圆 1524" stroke="#5ca1e6" opacity=".5" fill="none" transform="translate(1307 4392.19)"><circle stroke="none" cx="7" cy="7" r="7"/><circle class="cls-8" cx="7" cy="7" r="6.5"/></g></g><g data-name="组 6308" transform="translate(-947 -4233.19)"><circle data-name="椭圆 1525" fill="#5ca1e6" cx="3" cy="3" r="3" transform="translate(1311 4396.19)"/><g data-name="椭圆 1524" stroke="#5ca1e6" opacity=".5" fill="none" transform="translate(1307 4392.19)"><circle stroke="none" cx="7" cy="7" r="7"/><circle class="cls-8" cx="7" cy="7" r="6.5"/></g></g><g data-name="组 6307" transform="translate(-871 -4188.19)"><circle data-name="椭圆 1525" fill="#5ca1e6" cx="3" cy="3" r="3" transform="translate(1311 4396.19)"/><g data-name="椭圆 1524" stroke="#5ca1e6" opacity=".5" fill="none" transform="translate(1307 4392.19)"><circle stroke="none" cx="7" cy="7" r="7"/><circle class="cls-8" cx="7" cy="7" r="6.5"/></g></g><g data-name="组 6294" transform="translate(-824 -4219.19)"><circle data-name="椭圆 1525" fill="#5ca1e6" cx="3" cy="3" r="3" transform="translate(1311 4396.19)"/><g data-name="椭圆 1524" stroke="#5ca1e6" opacity=".5" fill="none" transform="translate(1307 4392.19)"><circle stroke="none" cx="7" cy="7" r="7"/><circle class="cls-8" cx="7" cy="7" r="6.5"/></g></g><g data-name="组 6296" transform="translate(-940 -4219.19)"><circle data-name="椭圆 1525" fill="#5ca1e6" cx="3" cy="3" r="3" transform="translate(1311 4396.19)"/><g data-name="椭圆 1524" stroke="#5ca1e6" opacity=".5" fill="none" transform="translate(1307 4392.19)"><circle stroke="none" cx="7" cy="7" r="7"/><circle class="cls-8" cx="7" cy="7" r="6.5"/></g></g><g data-name="组 6441" transform="translate(-848 -4198.19)"><circle data-name="椭圆 1525" fill="#5ca1e6" cx="3" cy="3" r="3" transform="translate(1311 4396.19)"/><g data-name="椭圆 1524" stroke="#5ca1e6" opacity=".5" fill="none" transform="translate(1307 4392.19)"><circle stroke="none" cx="7" cy="7" r="7"/><circle class="cls-8" cx="7" cy="7" r="6.5"/></g></g><g data-name="组 6440" transform="translate(-852 -4255.19)"><circle data-name="椭圆 1525" fill="#5ca1e6" cx="3" cy="3" r="3" transform="translate(1311 4396.19)"/><g data-name="椭圆 1524" stroke="#5ca1e6" opacity=".5" fill="none" transform="translate(1307 4392.19)"><circle stroke="none" cx="7" cy="7" r="7"/><circle class="cls-8" cx="7" cy="7" r="6.5"/></g></g></g></svg>