<svg xmlns="http://www.w3.org/2000/svg" xmlns:xlink="http://www.w3.org/1999/xlink" width="1920" height="387"><defs><linearGradient id="linear-gradient" x1=".448" y1=".256" x2=".5" y2="1" gradientUnits="objectBoundingBox"><stop offset="0" stop-color="#f8fafd" stop-opacity="0"/><stop offset="1" stop-color="#e7edf5"/></linearGradient><linearGradient id="linear-gradient-3" x1=".5" y1="0" xlink:href="#linear-gradient"/><clipPath id="clip-path"><path id="矩形_7565" data-name="矩形 7565" transform="translate(0 3300)" fill="#fff" stroke="#707070" d="M0 0h1920v387H0z"/></clipPath><style>.cls-3{fill:url(#linear-gradient)}.cls-10,.cls-11,.cls-12,.cls-13,.cls-5,.cls-6,.cls-7,.cls-8,.cls-9{fill:#787a7a}.cls-5{opacity:.6}.cls-6{opacity:.4}.cls-7{opacity:.2}.cls-8{opacity:.5}.cls-9{opacity:.3}.cls-10{opacity:.1}.cls-11{opacity:.05}.cls-12{opacity:.7}.cls-13{opacity:.8}</style></defs><g id="组_7024" data-name="组 7024" transform="translate(0 -6245)"><g id="蒙版组_727" data-name="蒙版组 727" transform="translate(0 2945)" clip-path="url(#clip-path)"><g id="组_4932" data-name="组 4932"><path id="路径_11656" data-name="路径 11656" class="cls-3" d="M15.524 310.052l251.941-461.473L266 904.221H0z" transform="rotate(60 -2338.78 2152.724)"/><path id="路径_11663" data-name="路径 11663" class="cls-3" d="M-38.786 215.911l235.46-420.726L266 864.141H0z" transform="rotate(60 -1822.137 3385.574)"/><path id="矩形_7482" data-name="矩形 7482" transform="rotate(60 -2218.23 2856.695)" fill="url(#linear-gradient-3)" d="M0 0h147v707H0z"/></g></g><g id="组_4757" data-name="组 4757" transform="translate(-43 4744)"><circle id="椭圆_1291" data-name="椭圆 1291" class="cls-5" cx="2" cy="2" r="2" transform="translate(1830 1619)"/><circle id="椭圆_1309" data-name="椭圆 1309" class="cls-6" cx="2" cy="2" r="2" transform="translate(1774 1619)"/><circle id="椭圆_1319" data-name="椭圆 1319" class="cls-7" cx="2" cy="2" r="2" transform="translate(1718 1619)"/><circle id="椭圆_1300" data-name="椭圆 1300" class="cls-8" cx="2" cy="2" r="2" transform="translate(1802 1619)"/><circle id="椭圆_1310" data-name="椭圆 1310" class="cls-9" cx="2" cy="2" r="2" transform="translate(1746 1619)"/><circle id="椭圆_1320" data-name="椭圆 1320" class="cls-10" cx="2" cy="2" r="2" transform="translate(1690 1619)"/><circle id="椭圆_1344" data-name="椭圆 1344" class="cls-11" cx="2" cy="2" r="2" transform="translate(1662 1619)"/><circle id="椭圆_1294" data-name="椭圆 1294" class="cls-5" cx="2" cy="2" r="2" transform="translate(1830 1675)"/><circle id="椭圆_1321" data-name="椭圆 1321" class="cls-12" cx="2" cy="2" r="2" transform="translate(1858 1675)"/><circle id="椭圆_1536" data-name="椭圆 1536" class="cls-12" cx="2" cy="2" r="2" transform="translate(1858 1647)"/><circle id="椭圆_1538" data-name="椭圆 1538" class="cls-12" cx="2" cy="2" r="2" transform="translate(1858 1619)"/><circle id="椭圆_1333" data-name="椭圆 1333" class="cls-13" cx="2" cy="2" r="2" transform="translate(1886 1675)"/><circle id="椭圆_1537" data-name="椭圆 1537" class="cls-13" cx="2" cy="2" r="2" transform="translate(1886 1647)"/><circle id="椭圆_1539" data-name="椭圆 1539" class="cls-13" cx="2" cy="2" r="2" transform="translate(1886 1619)"/><circle id="椭圆_1303" data-name="椭圆 1303" class="cls-6" cx="2" cy="2" r="2" transform="translate(1774 1675)"/><circle id="椭圆_1313" data-name="椭圆 1313" class="cls-7" cx="2" cy="2" r="2" transform="translate(1718 1675)"/><circle id="椭圆_1296" data-name="椭圆 1296" class="cls-8" cx="2" cy="2" r="2" transform="translate(1802 1675)"/><circle id="椭圆_1305" data-name="椭圆 1305" class="cls-9" cx="2" cy="2" r="2" transform="translate(1746 1675)"/><circle id="椭圆_1314" data-name="椭圆 1314" class="cls-10" cx="2" cy="2" r="2" transform="translate(1690 1675)"/><circle id="椭圆_1342" data-name="椭圆 1342" class="cls-11" cx="2" cy="2" r="2" transform="translate(1662 1675)"/><circle id="椭圆_1292" data-name="椭圆 1292" class="cls-5" cx="2" cy="2" r="2" transform="translate(1830 1647)"/><circle id="椭圆_1304" data-name="椭圆 1304" class="cls-6" cx="2" cy="2" r="2" transform="translate(1774 1647)"/><circle id="椭圆_1315" data-name="椭圆 1315" class="cls-7" cx="2" cy="2" r="2" transform="translate(1718 1647)"/><circle id="椭圆_1299" data-name="椭圆 1299" class="cls-8" cx="2" cy="2" r="2" transform="translate(1802 1647)"/><circle id="椭圆_1306" data-name="椭圆 1306" class="cls-9" cx="2" cy="2" r="2" transform="translate(1746 1647)"/><circle id="椭圆_1316" data-name="椭圆 1316" class="cls-10" cx="2" cy="2" r="2" transform="translate(1690 1647)"/><circle id="椭圆_1343" data-name="椭圆 1343" class="cls-11" cx="2" cy="2" r="2" transform="translate(1662 1647)"/><circle id="椭圆_1293" data-name="椭圆 1293" class="cls-5" cx="2" cy="2" r="2" transform="translate(1830 1703)"/><circle id="椭圆_1322" data-name="椭圆 1322" class="cls-12" cx="2" cy="2" r="2" transform="translate(1858 1703)"/><circle id="椭圆_1334" data-name="椭圆 1334" class="cls-13" cx="2" cy="2" r="2" transform="translate(1886 1703)"/><circle id="椭圆_1301" data-name="椭圆 1301" class="cls-6" cx="2" cy="2" r="2" transform="translate(1774 1703)"/><circle id="椭圆_1312" data-name="椭圆 1312" class="cls-7" cx="2" cy="2" r="2" transform="translate(1718 1703)"/><circle id="椭圆_1297" data-name="椭圆 1297" class="cls-8" cx="2" cy="2" r="2" transform="translate(1802 1703)"/><circle id="椭圆_1307" data-name="椭圆 1307" class="cls-9" cx="2" cy="2" r="2" transform="translate(1746 1703)"/><circle id="椭圆_1317" data-name="椭圆 1317" class="cls-10" cx="2" cy="2" r="2" transform="translate(1690 1703)"/><circle id="椭圆_1339" data-name="椭圆 1339" class="cls-11" cx="2" cy="2" r="2" transform="translate(1662 1703)"/><circle id="椭圆_1295" data-name="椭圆 1295" class="cls-5" cx="2" cy="2" r="2" transform="translate(1830 1731)"/><circle id="椭圆_1326" data-name="椭圆 1326" class="cls-5" cx="2" cy="2" r="2" transform="translate(1830 1759)"/><circle id="椭圆_1345" data-name="椭圆 1345" class="cls-5" cx="2" cy="2" r="2" transform="translate(1830 1787)"/><circle id="椭圆_1323" data-name="椭圆 1323" class="cls-12" cx="2" cy="2" r="2" transform="translate(1858 1731)"/><circle id="椭圆_1335" data-name="椭圆 1335" class="cls-13" cx="2" cy="2" r="2" transform="translate(1886 1731)"/><circle id="椭圆_1327" data-name="椭圆 1327" class="cls-12" cx="2" cy="2" r="2" transform="translate(1858 1759)"/><circle id="椭圆_1346" data-name="椭圆 1346" class="cls-12" cx="2" cy="2" r="2" transform="translate(1858 1787)"/><circle id="椭圆_1336" data-name="椭圆 1336" class="cls-13" cx="2" cy="2" r="2" transform="translate(1886 1759)"/><circle id="椭圆_1347" data-name="椭圆 1347" class="cls-13" cx="2" cy="2" r="2" transform="translate(1886 1787)"/><circle id="椭圆_1302" data-name="椭圆 1302" class="cls-6" cx="2" cy="2" r="2" transform="translate(1774 1731)"/><circle id="椭圆_1329" data-name="椭圆 1329" class="cls-6" cx="2" cy="2" r="2" transform="translate(1774 1759)"/><circle id="椭圆_1349" data-name="椭圆 1349" class="cls-6" cx="2" cy="2" r="2" transform="translate(1774 1787)"/><circle id="椭圆_1311" data-name="椭圆 1311" class="cls-7" cx="2" cy="2" r="2" transform="translate(1718 1731)"/><circle id="椭圆_1331" data-name="椭圆 1331" class="cls-7" cx="2" cy="2" r="2" transform="translate(1718 1759)"/><circle id="椭圆_1351" data-name="椭圆 1351" class="cls-7" cx="2" cy="2" r="2" transform="translate(1718 1787)"/><circle id="椭圆_1298" data-name="椭圆 1298" class="cls-8" cx="2" cy="2" r="2" transform="translate(1802 1731)"/><circle id="椭圆_1328" data-name="椭圆 1328" class="cls-8" cx="2" cy="2" r="2" transform="translate(1802 1759)"/><circle id="椭圆_1348" data-name="椭圆 1348" class="cls-8" cx="2" cy="2" r="2" transform="translate(1802 1787)"/><circle id="椭圆_1308" data-name="椭圆 1308" class="cls-9" cx="2" cy="2" r="2" transform="translate(1746 1731)"/><circle id="椭圆_1330" data-name="椭圆 1330" class="cls-9" cx="2" cy="2" r="2" transform="translate(1746 1759)"/><circle id="椭圆_1350" data-name="椭圆 1350" class="cls-9" cx="2" cy="2" r="2" transform="translate(1746 1787)"/><circle id="椭圆_1318" data-name="椭圆 1318" class="cls-10" cx="2" cy="2" r="2" transform="translate(1690 1731)"/><circle id="椭圆_1340" data-name="椭圆 1340" class="cls-11" cx="2" cy="2" r="2" transform="translate(1662 1731)"/><circle id="椭圆_1332" data-name="椭圆 1332" class="cls-10" cx="2" cy="2" r="2" transform="translate(1690 1759)"/><circle id="椭圆_1352" data-name="椭圆 1352" class="cls-10" cx="2" cy="2" r="2" transform="translate(1690 1787)"/><circle id="椭圆_1341" data-name="椭圆 1341" class="cls-11" cx="2" cy="2" r="2" transform="translate(1662 1759)"/><circle id="椭圆_1353" data-name="椭圆 1353" class="cls-11" cx="2" cy="2" r="2" transform="translate(1662 1787)"/></g><g id="组_6229" data-name="组 6229" transform="rotate(-180 981 4145.5)"><circle id="椭圆_1293-2" data-name="椭圆 1293" class="cls-5" cx="2" cy="2" r="2" transform="translate(1830 1703)"/><circle id="椭圆_1322-2" data-name="椭圆 1322" class="cls-12" cx="2" cy="2" r="2" transform="translate(1858 1703)"/><circle id="椭圆_1334-2" data-name="椭圆 1334" class="cls-13" cx="2" cy="2" r="2" transform="translate(1886 1703)"/><circle id="椭圆_1301-2" data-name="椭圆 1301" class="cls-6" cx="2" cy="2" r="2" transform="translate(1774 1703)"/><circle id="椭圆_1312-2" data-name="椭圆 1312" class="cls-7" cx="2" cy="2" r="2" transform="translate(1718 1703)"/><circle id="椭圆_1297-2" data-name="椭圆 1297" class="cls-8" cx="2" cy="2" r="2" transform="translate(1802 1703)"/><circle id="椭圆_1307-2" data-name="椭圆 1307" class="cls-9" cx="2" cy="2" r="2" transform="translate(1746 1703)"/><circle id="椭圆_1317-2" data-name="椭圆 1317" class="cls-10" cx="2" cy="2" r="2" transform="translate(1690 1703)"/><circle id="椭圆_1339-2" data-name="椭圆 1339" class="cls-11" cx="2" cy="2" r="2" transform="translate(1662 1703)"/><circle id="椭圆_1295-2" data-name="椭圆 1295" class="cls-5" cx="2" cy="2" r="2" transform="translate(1830 1731)"/><circle id="椭圆_1326-2" data-name="椭圆 1326" class="cls-5" cx="2" cy="2" r="2" transform="translate(1830 1759)"/><circle id="椭圆_1345-2" data-name="椭圆 1345" class="cls-5" cx="2" cy="2" r="2" transform="translate(1830 1787)"/><circle id="椭圆_1323-2" data-name="椭圆 1323" class="cls-12" cx="2" cy="2" r="2" transform="translate(1858 1731)"/><circle id="椭圆_1335-2" data-name="椭圆 1335" class="cls-13" cx="2" cy="2" r="2" transform="translate(1886 1731)"/><circle id="椭圆_1327-2" data-name="椭圆 1327" class="cls-12" cx="2" cy="2" r="2" transform="translate(1858 1759)"/><circle id="椭圆_1346-2" data-name="椭圆 1346" class="cls-12" cx="2" cy="2" r="2" transform="translate(1858 1787)"/><circle id="椭圆_1336-2" data-name="椭圆 1336" class="cls-13" cx="2" cy="2" r="2" transform="translate(1886 1759)"/><circle id="椭圆_1347-2" data-name="椭圆 1347" class="cls-13" cx="2" cy="2" r="2" transform="translate(1886 1787)"/><circle id="椭圆_1302-2" data-name="椭圆 1302" class="cls-6" cx="2" cy="2" r="2" transform="translate(1774 1731)"/><circle id="椭圆_1329-2" data-name="椭圆 1329" class="cls-6" cx="2" cy="2" r="2" transform="translate(1774 1759)"/><circle id="椭圆_1349-2" data-name="椭圆 1349" class="cls-6" cx="2" cy="2" r="2" transform="translate(1774 1787)"/><circle id="椭圆_1311-2" data-name="椭圆 1311" class="cls-7" cx="2" cy="2" r="2" transform="translate(1718 1731)"/><circle id="椭圆_1331-2" data-name="椭圆 1331" class="cls-7" cx="2" cy="2" r="2" transform="translate(1718 1759)"/><circle id="椭圆_1351-2" data-name="椭圆 1351" class="cls-7" cx="2" cy="2" r="2" transform="translate(1718 1787)"/><circle id="椭圆_1298-2" data-name="椭圆 1298" class="cls-8" cx="2" cy="2" r="2" transform="translate(1802 1731)"/><circle id="椭圆_1328-2" data-name="椭圆 1328" class="cls-8" cx="2" cy="2" r="2" transform="translate(1802 1759)"/><circle id="椭圆_1348-2" data-name="椭圆 1348" class="cls-8" cx="2" cy="2" r="2" transform="translate(1802 1787)"/><circle id="椭圆_1308-2" data-name="椭圆 1308" class="cls-9" cx="2" cy="2" r="2" transform="translate(1746 1731)"/><circle id="椭圆_1330-2" data-name="椭圆 1330" class="cls-9" cx="2" cy="2" r="2" transform="translate(1746 1759)"/><circle id="椭圆_1350-2" data-name="椭圆 1350" class="cls-9" cx="2" cy="2" r="2" transform="translate(1746 1787)"/><circle id="椭圆_1318-2" data-name="椭圆 1318" class="cls-10" cx="2" cy="2" r="2" transform="translate(1690 1731)"/><circle id="椭圆_1340-2" data-name="椭圆 1340" class="cls-11" cx="2" cy="2" r="2" transform="translate(1662 1731)"/><circle id="椭圆_1332-2" data-name="椭圆 1332" class="cls-10" cx="2" cy="2" r="2" transform="translate(1690 1759)"/><circle id="椭圆_1352-2" data-name="椭圆 1352" class="cls-10" cx="2" cy="2" r="2" transform="translate(1690 1787)"/><circle id="椭圆_1341-2" data-name="椭圆 1341" class="cls-11" cx="2" cy="2" r="2" transform="translate(1662 1759)"/><circle id="椭圆_1353-2" data-name="椭圆 1353" class="cls-11" cx="2" cy="2" r="2" transform="translate(1662 1787)"/></g></g></svg>